<?xml version="1.0" encoding="UTF-8"?>
<svg xmlns="http://www.w3.org/2000/svg" xmlns:xlink="http://www.w3.org/1999/xlink" width="40pt" height="71pt" viewBox="0 0 40 71" version="1.1">
<g id="surface1">
<path style=" stroke:none;fill-rule:nonzero;fill:rgb(0%,0%,0%);fill-opacity:1;" d="M 15.554688 43.949219 L 15.554688 65.679688 L 18.613281 70.257812 C 19.273438 71.246094 20.726562 71.246094 21.386719 70.257812 L 24.445312 65.679688 L 24.445312 43.949219 C 23 44.21875 21.519531 44.375 20 44.375 C 18.480469 44.375 17 44.21875 15.554688 43.949219 Z M 20 0 C 8.953125 0 0 8.941406 0 19.96875 C 0 30.996094 8.953125 39.9375 20 39.9375 C 31.046875 39.9375 40 30.996094 40 19.96875 C 40 8.941406 31.046875 0 20 0 Z M 20 10.539062 C 14.792969 10.539062 10.554688 14.769531 10.554688 19.96875 C 10.554688 20.886719 9.808594 21.632812 8.890625 21.632812 C 7.96875 21.632812 7.222656 20.886719 7.222656 19.96875 C 7.222656 12.933594 12.957031 7.210938 20 7.210938 C 20.921875 7.210938 21.667969 7.957031 21.667969 8.875 C 21.667969 9.792969 20.921875 10.539062 20 10.539062 Z M 20 10.539062 "/>
</g>
</svg>
